<svg width="124" height="32" viewBox="0 0 124 32" fill="none" xmlns="http://www.w3.org/2000/svg">
<path d="M122.427 15C122.916 16.3544 123.162 17.931 123.162 19.7305V21.3926H108.305V21.4062C108.305 22.4858 108.504 23.4191 108.901 24.2051C109.309 24.9908 109.882 25.5964 110.62 26.0225C111.359 26.4486 112.235 26.6621 113.248 26.6621C113.92 26.6621 114.536 26.5673 115.095 26.3779C115.653 26.1885 116.132 25.9041 116.529 25.5254C116.927 25.1467 117.23 24.6829 117.438 24.1338L123.035 24.5029C122.751 25.8476 122.168 27.0216 121.287 28.0254C120.416 29.0196 119.29 29.7968 117.907 30.3555C116.534 30.9047 114.948 31.1787 113.148 31.1787C110.904 31.1787 108.972 30.7245 107.353 29.8154C105.743 28.8969 104.502 27.5998 103.631 25.9238C102.76 24.2382 102.324 22.2445 102.324 19.9434C102.324 18.1129 102.615 16.4651 103.194 15H109.236C109.12 15.1569 109.013 15.3224 108.915 15.4971C108.548 16.1436 108.349 16.859 108.312 17.6426H117.467C117.467 16.7715 117.277 15.9994 116.898 15.3271C116.835 15.2137 116.765 15.1051 116.692 15H122.427ZM52.8096 24.0488C52.8096 24.6073 52.895 25.0431 53.0654 25.3555C53.2358 25.6583 53.4726 25.871 53.7754 25.9941C54.0879 26.1172 54.4483 26.1787 54.8555 26.1787C55.1395 26.1787 55.424 26.1557 55.708 26.1084C55.9919 26.0516 56.2099 26.0089 56.3613 25.9805L57.3125 30.4834C57.0095 30.5781 56.5832 30.6865 56.0342 30.8096C55.485 30.9421 54.8172 31.0224 54.0312 31.0508C52.573 31.1076 51.2947 30.9138 50.1963 30.4688C49.1073 30.0237 48.2594 29.332 47.6533 28.3945C47.0475 27.4571 46.7493 26.2734 46.7588 24.8438V15H52.8096V24.0488ZM6.15039 25.6816H18.6221V30.7529H0V15H6.15039V25.6816ZM27.4326 30.7529H21.3818V15H27.4326V30.7529ZM38.4668 30.7529H32.4297V15H38.4668V30.7529ZM66.1768 30.7529H60.126V15H66.1768V30.7529ZM75.875 30.7529H69.8242V15H75.875V30.7529ZM86.5928 15C86.4067 15.2199 86.2409 15.4652 86.0986 15.7383C85.7577 16.4012 85.5827 17.2021 85.5732 18.1396V30.7529H79.5225V15H86.5928ZM99.4951 15C99.5887 15.5849 99.6357 16.2056 99.6357 16.8613V30.7529H93.585V17.9404C93.5937 16.7114 93.3048 15.7316 92.7197 15H99.4951ZM6.15039 13H0V1.66211H6.15039V13ZM27.4326 13H21.3818V8.93457H27.4326V13ZM39.5889 0.298828C40.5167 0.298836 41.364 0.369731 42.1309 0.511719C42.9073 0.653745 43.4855 0.780906 43.8643 0.894531L42.7852 5.44043C42.5485 5.36469 42.2546 5.29381 41.9043 5.22754C41.5634 5.16125 41.2124 5.12793 40.8525 5.12793C39.9626 5.12799 39.3425 5.33634 38.9922 5.75293C38.6418 6.16013 38.4668 6.73304 38.4668 7.47168V8.93457H42.8135V13H29.3477V8.93457H32.4297V7.3584C32.4297 5.77721 32.7372 4.46541 33.3525 3.42383C33.9775 2.38216 34.8306 1.60091 35.9102 1.08008C36.9897 0.559296 38.2158 0.298828 39.5889 0.298828ZM52.8096 8.93457H56.915V13H43.7754V8.93457H46.7588V3.70703H52.8096V8.93457ZM66.1768 13H60.126V1.66211H66.1768V13ZM75.875 13H69.8242V8.93457H75.875V13ZM92.1074 8.65039C93.6224 8.65039 94.9435 8.98184 96.0703 9.64453C97.1972 10.3074 98.0732 11.2553 98.6982 12.4863C98.7836 12.6531 98.8628 12.8244 98.9365 13H79.5225V8.93457H85.2891V12.7842H85.5449C86.0279 11.5153 86.8374 10.5111 87.9736 9.77246C89.11 9.02439 90.4882 8.65042 92.1074 8.65039ZM112.907 8.65039C114.346 8.65043 115.686 8.88271 116.927 9.34668C118.177 9.80118 119.265 10.4878 120.193 11.4062C120.672 11.8754 121.096 12.4073 121.466 13H104.239C105.044 11.7926 106.067 10.816 107.311 10.0713C108.901 9.12436 110.767 8.65039 112.907 8.65039ZM24.4219 0C25.3213 7.6846e-05 26.0883 0.303199 26.7227 0.90918C27.3665 1.50569 27.6884 2.22053 27.6885 3.05371C27.6885 3.89651 27.3666 4.62148 26.7227 5.22754C26.0883 5.82399 25.3213 6.12199 24.4219 6.12207C23.5224 6.12207 22.7503 5.82399 22.1064 5.22754C21.472 4.62148 21.1543 3.89651 21.1543 3.05371C21.1544 2.22053 21.4721 1.50569 22.1064 0.90918C22.7504 0.303202 23.5223 0 24.4219 0ZM72.8633 0C73.7629 0 74.5306 0.303118 75.165 0.90918C75.8088 1.50567 76.1308 2.22057 76.1309 3.05371C76.1309 3.89651 75.809 4.62148 75.165 5.22754C74.5306 5.82413 73.7629 6.12207 72.8633 6.12207C71.964 6.12197 71.1926 5.82383 70.5488 5.22754C69.9144 4.62148 69.5967 3.89651 69.5967 3.05371C69.5968 2.22053 69.9144 1.50569 70.5488 0.90918C71.1926 0.303366 71.964 9.87259e-05 72.8633 0Z" fill="white"/>
</svg>
